<svg width="29" height="30" viewBox="0 0 29 30" fill="none" xmlns="http://www.w3.org/2000/svg">
<g opacity="0.6">
<circle cx="14.2616" cy="14.8608" r="14.1885" fill="black"/>
<circle cx="14.2616" cy="14.8608" r="14.1885" fill="black" fill-opacity="0.2"/>
</g>
<path d="M14.2613 20.6413C13.4542 20.6413 12.7999 19.987 12.7999 19.1798V10.5418C12.7999 9.73463 13.4542 9.08032 14.2613 9.08032C15.0685 9.08032 15.7228 9.73464 15.7228 10.5418V19.1798C15.7228 19.987 15.0685 20.6413 14.2613 20.6413ZM9.94228 16.3223C9.13515 16.3223 8.48083 15.6679 8.48083 14.8608C8.48083 14.0537 9.13515 13.3994 9.94228 13.3994H18.5804C19.3875 13.3994 20.0418 14.0537 20.0418 14.8608C20.0418 15.6679 19.3875 16.3223 18.5804 16.3223H9.94228Z" fill="white"/>
</svg>
